<svg width="118" height="129" viewBox="0 0 118 129" fill="none" xmlns="http://www.w3.org/2000/svg">
<g opacity="0.38" filter="url(#filter0_f)">
<path d="M86.5 109H31.5C27.9101 109 25 111.91 25 115.5C25 119.09 27.9101 122 31.5 122H86.5C90.0899 122 93 119.09 93 115.5C93 111.91 90.0899 109 86.5 109Z" fill="#EF1D52"/>
</g>
<path d="M88 0H30C13.4315 0 0 13.4315 0 30V88C0 104.569 13.4315 118 30 118H88C104.569 118 118 104.569 118 88V30C118 13.4315 104.569 0 88 0Z" fill="#EF1D52" fill-opacity="0.77"/>
<path d="M64.486 42.248C64.4713 42.083 64.4933 41.9168 64.5503 41.7613C64.6072 41.6058 64.6979 41.4648 64.8156 41.3484C64.9334 41.2319 65.0755 41.1429 65.2316 41.0877C65.3878 41.0325 65.5542 41.0125 65.719 41.029C70.5854 40.9749 75.4135 41.895 79.919 43.735C80.0866 43.7762 80.2428 43.8544 80.3761 43.964C80.5094 44.0735 80.6165 44.2116 80.6894 44.368C80.7623 44.5244 80.7992 44.6951 80.7974 44.8677C80.7956 45.0402 80.7552 45.2102 80.679 45.365C80.198 46.206 79.59 46.965 79.057 47.771C78.178 48.955 77.511 50.361 76.257 51.21C75.2226 51.916 73.992 52.2782 72.74 52.245C70.41 52.245 68.082 52.261 65.752 52.234C65.365 48.903 64.865 45.583 64.486 42.248Z" fill="white"/>
<path d="M42.774 50.122C47.844 45.5655 54.1166 42.5619 60.845 41.469C61.0016 41.4412 61.1623 41.4469 61.3166 41.4856C61.4709 41.5244 61.6152 41.5954 61.74 41.6939C61.8649 41.7924 61.9675 41.9162 62.0411 42.0572C62.1147 42.1982 62.1576 42.3532 62.167 42.512C62.605 45.756 63.0267 49.0027 63.432 52.252C56.8873 52.252 50.342 52.252 43.796 52.252C43.5439 52.2916 43.2858 52.2633 43.0482 52.1702C42.8106 52.0771 42.6021 51.9224 42.444 51.722C42.2815 51.4644 42.2251 51.1538 42.2866 50.8555C42.3481 50.5572 42.5228 50.2943 42.774 50.122Z" fill="white"/>
<path d="M82.046 47.499C82.608 46.761 83.179 45.315 84.355 45.845C86.1572 46.7694 87.8775 47.8456 89.497 49.062C90.5233 49.8458 91.3494 50.8616 91.9075 52.0262C92.4656 53.1908 92.74 54.471 92.708 55.762C92.689 60.603 92.749 65.445 92.676 70.286C92.695 70.251 92.735 70.186 92.754 70.148V70.248C92.332 70.543 91.959 71.01 91.392 70.943C90.3234 71.0038 89.2518 70.9847 88.186 70.886C87.324 70.699 87.386 69.686 87.337 69.005C87.2607 67.4421 86.831 65.9168 86.0802 64.5439C85.3294 63.171 84.2771 61.9862 83.0024 61.0786C81.7277 60.171 80.2638 59.5643 78.7208 59.304C77.1778 59.0438 75.5959 59.1368 74.094 59.576C71.9866 60.1998 70.1309 61.4751 68.7933 63.2191C67.4558 64.963 66.7051 67.0859 66.649 69.283C66.706 70.034 66.392 71.016 65.465 70.951C60.865 71.01 56.265 70.943 51.67 70.983C51.013 70.953 50.097 71.083 49.764 70.353C49.6419 69.8299 49.5776 69.2951 49.572 68.758C49.3865 66.1728 48.2372 63.7515 46.3516 61.9732C44.4661 60.1949 41.9816 59.1892 39.39 59.1553C36.7984 59.1213 34.2885 60.0616 32.357 61.7898C30.4255 63.5181 29.2132 65.9086 28.96 68.488C28.841 69.204 29.014 70.269 28.144 70.564C26.974 70.6874 25.7953 70.7055 24.622 70.618C24.095 70.661 23.806 70.188 23.552 69.812V61.229C23.6064 60.0528 24.0161 58.9207 24.727 57.982C25.4378 57.0433 26.4165 56.3422 27.534 55.971C31.0697 54.9435 34.7421 54.4649 38.423 54.552C49.863 54.552 61.304 54.552 72.746 54.552C74.6843 54.5802 76.5726 53.9364 78.09 52.73C79.746 51.278 80.73 49.243 82.046 47.499Z" fill="white"/>
<path d="M37.722 61.611C39.6588 61.2319 41.6674 61.5748 43.3686 62.5752C45.0698 63.5756 46.3459 65.1641 46.9561 67.041C47.5663 68.9178 47.4683 70.9531 46.6806 72.7626C45.8929 74.5722 44.4701 76.0307 42.6806 76.863C40.8912 77.6953 38.8589 77.8437 36.9675 77.2803C35.0761 76.7168 33.4565 75.4804 32.4142 73.8045C31.372 72.1286 30.9793 70.1292 31.3104 68.1836C31.6414 66.238 32.6732 64.4809 34.211 63.244C35.2323 62.4241 36.437 61.8638 37.722 61.611Z" fill="white"/>
<path d="M75.327 61.64C77.2413 61.2322 79.2386 61.5342 80.9467 62.4899C82.6549 63.4456 83.9573 64.9897 84.6113 66.8345C85.2653 68.6792 85.2262 70.6989 84.5015 72.517C83.7767 74.3352 82.4157 75.8278 80.6719 76.7168C78.9282 77.6058 76.9207 77.8305 75.0236 77.3491C73.1264 76.8676 71.469 75.7128 70.3602 74.0999C69.2514 72.487 68.7668 70.526 68.9968 68.5822C69.2267 66.6385 70.1555 64.8447 71.61 63.535C72.6625 62.5899 73.9439 61.9367 75.327 61.64Z" fill="white"/>
<defs>
<filter id="filter0_f" x="18" y="102" width="82" height="27" filterUnits="userSpaceOnUse" color-interpolation-filters="sRGB">
<feFlood flood-opacity="0" result="BackgroundImageFix"/>
<feBlend mode="normal" in="SourceGraphic" in2="BackgroundImageFix" result="shape"/>
<feGaussianBlur stdDeviation="3.5" result="effect1_foregroundBlur"/>
</filter>
</defs>
</svg>
