<svg width="24" height="24" viewBox="0 0 24 24" fill="none" xmlns="http://www.w3.org/2000/svg">
<path d="M18.3393 4.225C16.5378 2.78362 14.2991 1.99886 11.992 2C9.27235 2 6.73218 3.04777 4.83308 4.95044C2.99781 6.79151 1.99201 9.2223 2.00005 11.7933C2.00011 13.6782 2.55349 15.5217 3.59156 17.0951L3.60004 17.1071C3.61254 17.1254 3.62549 17.1437 3.63844 17.1616C3.65138 17.1794 3.66745 17.2026 3.67103 17.2084L3.68085 17.2263C3.73129 17.3156 3.77013 17.4245 3.73576 17.5343L2.91344 20.5102C2.88054 20.6209 2.86253 20.7354 2.85987 20.8508C2.85927 21.1545 2.97911 21.446 3.19309 21.6614C3.40708 21.8768 3.69775 21.9985 4.00138 22C4.16183 21.9947 4.31994 21.96 4.4679 21.8977L7.48084 20.8102L7.51878 20.7955C7.60074 20.7611 7.68882 20.7436 7.77771 20.7442C7.85967 20.7444 7.94091 20.7595 8.01744 20.7888C8.08976 20.8169 8.74646 21.0683 9.43931 21.262C10.0152 21.4227 11.2134 21.6638 12.1523 21.6638C14.8152 21.6638 17.3018 20.6325 19.1536 18.7593C20.9893 16.9004 22 14.4294 22 11.7986C22.0002 11.1233 21.9287 10.4499 21.7866 9.78971C21.325 7.61918 20.1009 5.6424 18.3393 4.225ZM7.71432 13.4285C7.43178 13.4285 7.15558 13.3448 6.92065 13.1878C6.68572 13.0308 6.50262 12.8077 6.39449 12.5467C6.28637 12.2856 6.25808 11.9984 6.3132 11.7213C6.36832 11.4442 6.50438 11.1896 6.70417 10.9898C6.90396 10.79 7.1585 10.654 7.43562 10.5989C7.71273 10.5437 7.99997 10.572 8.26101 10.6802C8.52205 10.7883 8.74516 10.9714 8.90213 11.2063C9.0591 11.4412 9.14289 11.7174 9.14289 12C9.14289 12.3789 8.99238 12.7422 8.72447 13.0101C8.45656 13.278 8.0932 13.4285 7.71432 13.4285ZM12 13.4285C11.7175 13.4285 11.4413 13.3448 11.2064 13.1878C10.9714 13.0308 10.7883 12.8077 10.6802 12.5467C10.5721 12.2856 10.5438 11.9984 10.5989 11.7213C10.654 11.4442 10.7901 11.1896 10.9899 10.9898C11.1897 10.79 11.4442 10.654 11.7213 10.5989C11.9984 10.5437 12.2857 10.572 12.5467 10.6802C12.8077 10.7883 13.0309 10.9714 13.1878 11.2063C13.3448 11.4412 13.4286 11.7174 13.4286 12C13.4286 12.3789 13.2781 12.7422 13.0102 13.0101C12.7423 13.278 12.3789 13.4285 12 13.4285ZM16.2857 13.4285C16.0032 13.4285 15.727 13.3448 15.4921 13.1878C15.2571 13.0308 15.074 12.8077 14.9659 12.5467C14.8578 12.2856 14.8295 11.9984 14.8846 11.7213C14.9397 11.4442 15.0758 11.1896 15.2756 10.9898C15.4754 10.79 15.7299 10.654 16.007 10.5989C16.2841 10.5437 16.5714 10.572 16.8324 10.6802C17.0935 10.7883 17.3166 10.9714 17.4735 11.2063C17.6305 11.4412 17.7143 11.7174 17.7143 12C17.7143 12.3789 17.5638 12.7422 17.2959 13.0101C17.028 13.278 16.6646 13.4285 16.2857 13.4285Z" fill="#4E4B6F"/>
</svg>
