<svg width="300" height="74" viewBox="0 0 300 74" fill="none" xmlns="http://www.w3.org/2000/svg">
<path d="M299.535 57.8564C286.999 79.1113 267.144 72.944 261.181 68.115C258.644 69.8369 254.194 73.6104 248.26 73.175C235.624 72.2477 231.098 54.1889 231.098 54.1889C231.189 54.261 227.334 55.5191 225.251 55.4969C225.224 60.7923 220.646 73.4427 208.291 73.2815C194.428 73.1007 191.61 52.4463 191.61 52.4463C191.61 52.4463 190.23 54.3617 184.984 56.2705C185.248 52.2017 185.055 72.6617 168.439 72.9626C155.303 73.2005 151.757 52.1273 151.757 52.1273C151.757 52.1273 149.478 54.4952 145.062 55.3164C145.343 51.1814 144.887 73.032 128.268 72.9626C117.038 72.9158 113.2 59.9819 113.499 58.1866C113.88 55.8985 109.704 73.2846 98.7949 73.0139C94.2932 72.8811 90.9377 69.6226 88.8318 65.2764C86.0124 68.5026 81.919 73.0139 77.3273 73.0139C69.0855 73.0139 65.4524 66.1196 66.0674 46.4304C66.1197 44.095 65.9513 43.1763 63.6297 42.8277C62.2367 42.5952 60.8092 42.1549 59.3001 41.9225C58.8162 43.5374 54.7111 72.4881 40.5977 73.0376C35.8627 73.2221 33.2736 69.1208 31.1473 66.0758C27.888 70.3879 23.5856 73.175 17.4563 73.175C7.07389 73.175 0 64.7818 0 54.4284C0 44.0749 7.07389 35.6818 17.4563 35.6818C19.292 35.6818 19.8074 35.9453 21.4844 36.4345C18.0355 5.03306 26.1804 0.125473 33.3055 0.125473C40.1455 0.125473 51.8319 16.002 35.3888 56.2731C39.0397 68.285 46.9096 67.606 50.692 42.8791C51.4611 37.8522 49.4031 31.0697 52.605 30.123C58.4564 28.393 59.0773 33.5837 61.8213 34.4486C64.7224 35.3629 66.4156 35.2737 69.2016 35.8547C73.9609 36.7845 75.8182 39.3412 75.2378 45.0357C74.5413 52.2411 73.3233 62.7275 77.0378 64.0059C79.716 64.934 84.6064 59.38 85.4642 56.3409C86.322 53.3019 86.5009 52.2618 86.577 50.033C86.6931 45.2682 86.8386 41.7762 87.6512 38.1735C87.9995 36.779 88.3953 35.8555 89.9728 35.7925C91.2703 35.7598 93.6442 35.3687 94.689 36.1822C96.082 37.2282 95.9074 38.2902 95.7474 41.0844C94.1282 80.9266 106.594 61.0374 110.311 45.1115C108.988 27.1035 109.896 0.455235 121.181 0.00829391C127.05 -0.22414 129.644 4.47756 129.93 7.98669C130.737 17.8984 126.215 34.3171 120.269 45.3587C116.869 67.8884 135.129 72.3424 138.048 54.3597C133.271 52.0882 128.108 42.8947 132.309 38.4145C134.667 35.9006 144.479 39.5127 144.641 47.3906C149.454 46.1032 150.096 43.3859 150.163 43.8359C148.84 25.8279 150.067 0.455235 161.352 0.00829391C167.221 -0.22414 169.815 4.47756 170.101 7.98669C170.908 17.8984 166.386 34.3171 160.44 45.3587C157.041 67.8884 175.3 72.3424 178.219 54.3597C174.682 53.6772 167.216 43.899 171.524 38.4145C173.826 35.4839 183.603 41.5789 184.697 47.6515C189.322 46.3427 189.95 43.7112 190.016 44.1548C188.692 26.1468 189.919 0.77415 201.204 0.327208C207.073 0.0947739 209.667 4.79647 209.953 8.3056C210.76 18.2173 206.238 34.636 200.292 45.6776C196.893 68.2072 215.152 72.6613 218.071 54.6786C213.212 53.8685 206.304 43.5442 211.863 38.2625C214.085 36.1519 222.572 41.6303 224.558 47.8799C227.319 47.7734 229.037 46.8221 229.405 46.7258C224.998 25.5854 228.279 0.219878 240.419 0.00829391C246.98 -0.106038 253.396 3.55567 250.58 23.668C247.893 42.8584 238.231 50.9115 238.253 51.0344C238.816 53.3334 243.773 72.5732 256.257 62.4215C255.611 60.958 254.964 59.4634 254.602 57.6521C252.533 47.1025 256.597 35.1872 267.644 33.2614C273.973 32.1581 279.935 35.2393 280.878 42.1864C282.429 53.5533 272.165 61.7857 268.262 63.5715C266.513 62.5782 284.109 73.8631 294.551 51.2485C295.156 49.957 295.887 50.0669 296.832 50.7322C297.5 51.2023 301.304 54.8061 299.535 57.8564ZM25.0086 51.6353C24.4773 50.0462 23.3869 46.5467 23.0014 45.0298C20.8782 43.1833 19.3625 42.8831 16.6364 42.8831C10.5789 42.8831 7.01365 48.4842 7.01365 54.5232C7.01365 60.5623 10.8978 66.1633 16.9552 66.1633C22.2047 66.1633 26.2001 62.5939 27.4189 57.5412C26.5658 55.5712 25.7195 53.7614 25.0086 51.6353ZM33.1571 8.43763C28.9008 8.43763 27.4569 18.591 27.7372 27.2529C27.985 34.9112 30.1249 41.6531 31.235 44.6734C31.5168 45.0527 31.4645 44.806 31.7161 45.2076C39.1062 29.0153 36.0412 8.43763 33.1571 8.43763ZM121.788 8.75655C116.287 8.12564 116.323 31.0417 117.006 36.1822C119.862 31.6114 124.826 9.98704 121.788 8.75655ZM161.96 8.75655C156.458 8.12564 156.494 31.0417 157.177 36.1822C160.033 31.6114 164.997 9.98704 161.96 8.75655ZM201.812 9.07538C196.31 8.44456 196.346 31.3606 197.03 36.5011C199.886 31.9303 204.849 10.306 201.812 9.07538ZM241.026 7.41511C232.455 9.13624 234.451 37.7133 235.753 42.7249C245.849 28.8586 246.056 6.89392 241.026 7.41511ZM273.148 43.1263C272.713 41.3046 270.533 40.3303 269.029 40.5706C264.726 41.1582 260.552 46.5182 262.167 54.6786C262.527 56.4956 263.427 58.1682 263.413 58.1128C273.044 51.6514 273.862 46.5594 273.148 43.1263ZM91.6602 29.4852C88.2267 29.4852 85.4432 26.7011 85.4432 23.2666C85.4432 19.8321 88.2267 17.048 91.6602 17.048C95.0937 17.048 97.8771 19.8321 97.8771 23.2666C97.8771 26.7011 95.0937 29.4852 91.6602 29.4852Z" fill="white"/>
</svg>
