<svg width="58" height="58" viewBox="0 0 58 58" fill="none" xmlns="http://www.w3.org/2000/svg">
<path d="M32.8081 25.1945L32.8054 6.16444C32.8142 5.65914 32.7223 5.15714 32.535 4.68775C32.3477 4.21835 32.0688 3.79095 31.7145 3.4305C31.3603 3.07005 30.9378 2.78375 30.4717 2.58833C30.0057 2.3929 29.5054 2.29225 29 2.29225C28.4946 2.29225 27.9943 2.3929 27.5282 2.58833C27.0621 2.78376 26.6396 3.07005 26.2854 3.4305C25.9312 3.79096 25.6522 4.21835 25.465 4.68774C25.2776 5.15714 25.1857 5.65914 25.1945 6.16444L25.1918 25.1945L6.16441 25.1945C5.6591 25.1857 5.15711 25.2777 4.68771 25.465C4.21832 25.6523 3.79092 25.9312 3.43047 26.2854C3.07002 26.6397 2.78372 27.0622 2.5883 27.5282C2.39287 27.9943 2.29222 28.4946 2.29222 29C2.29222 29.5054 2.39287 30.0057 2.5883 30.4718C2.78372 30.9378 3.07002 31.3603 3.43047 31.7146C3.79092 32.0688 4.21832 32.3477 4.68771 32.535C5.15711 32.7223 5.6591 32.8143 6.16441 32.8055L25.1918 32.8055L25.1945 51.8356C25.1857 52.3409 25.2776 52.8429 25.4649 53.3123C25.6522 53.7817 25.9312 54.209 26.2854 54.5695C26.6396 54.9299 27.0621 55.2162 27.5282 55.4117C27.9943 55.6071 28.4946 55.7077 29 55.7077C29.5053 55.7077 30.0057 55.6071 30.4717 55.4117C30.9378 55.2162 31.3603 54.93 31.7145 54.5695C32.0688 54.209 32.3477 53.7816 32.535 53.3123C32.7223 52.8429 32.8142 52.3409 32.8054 51.8356L32.8054 32.8082L51.8355 32.8055C52.3408 32.8143 52.8428 32.7223 53.3122 32.535C53.7816 32.3477 54.209 32.0688 54.5695 31.7146C54.9299 31.3603 55.2162 30.9378 55.4116 30.4718C55.6071 30.0057 55.7077 29.5054 55.7077 29C55.7077 28.4946 55.6071 27.9943 55.4116 27.5282C55.2162 27.0621 54.9299 26.6397 54.5695 26.2854C54.209 25.9312 53.7816 25.6523 53.3122 25.465C52.8428 25.2777 52.3408 25.1857 51.8355 25.1945L32.8054 25.1918L32.8081 25.1945Z" fill="white"/>
</svg>
