<svg width="60" height="50" viewBox="0 0 60 50" fill="none" xmlns="http://www.w3.org/2000/svg">
<path d="M54.7428 11.8793C54.7428 33.2458 40.7074 48.6317 20.0643 49.3069C11.3344 49.9822 5.3537 47.3294 0 43.3262C5.98071 44.0015 14.0354 42.024 17.9904 37.9725C12.0096 37.9725 8.63344 34.5963 6.65595 30.0143H12.0096C6.65595 27.9886 2.6045 23.9854 2.6045 17.3294C3.90675 18.0047 5.25723 18.6317 7.9582 18.6317C3.27974 15.979 0.62701 7.29729 3.95498 1.94359C9.93569 8.59954 17.2669 14.6285 29.373 15.2555C25.9968 1.9436 43.4084 -4.80882 50.7395 3.92109C54.1158 3.24585 56.0932 1.94359 58.6977 0.544881C58.0225 3.92109 56.045 5.89858 53.344 7.20083C55.9968 7.20083 58.0225 6.52559 60 5.22334C59.373 7.87607 56.7203 10.577 54.7428 11.8793Z" fill="white"/>
</svg>
