<svg width="20" height="20" viewBox="0 0 20 20" fill="none" xmlns="http://www.w3.org/2000/svg">
<path d="M18.6661 15.877L12.7861 10L18.6661 4.12295C18.8529 3.94223 19.002 3.72623 19.1046 3.48746C19.2076 3.24799 19.2618 2.99042 19.2641 2.72978C19.2663 2.46914 19.2166 2.21067 19.1179 1.96944C19.0191 1.72822 18.8732 1.50907 18.6888 1.3248C18.5044 1.14052 18.2851 0.994802 18.0437 0.896131C17.8024 0.797459 17.5438 0.74781 17.283 0.750074C17.0222 0.752338 16.7645 0.806471 16.5249 0.909319C16.286 1.01187 16.0698 1.16081 15.889 1.3475L10.0062 7.22396L4.12517 1.34751C3.9443 1.16082 3.72813 1.01187 3.48921 0.909319C3.2496 0.806471 2.99189 0.752338 2.73113 0.750074C2.47037 0.74781 2.21177 0.797459 1.97041 0.896131C1.72904 0.994802 1.50975 1.14052 1.32533 1.3248C1.14091 1.50908 0.995054 1.72822 0.896283 1.96944C0.797512 2.21067 0.747808 2.46914 0.750074 2.72978C0.752341 2.99042 0.806534 3.24799 0.909485 3.48746C1.01214 3.72625 1.16122 3.94227 1.34806 4.123L7.22885 9.99917L1.34807 15.877C1.16123 16.0577 1.01214 16.2737 0.909485 16.5125C0.806534 16.752 0.752341 17.0096 0.750074 17.2702C0.747808 17.5309 0.797512 17.7893 0.896283 18.0306C0.995054 18.2718 1.14091 18.4909 1.32533 18.6752C1.50975 18.8595 1.72904 19.0052 1.97041 19.1039C2.21177 19.2025 2.47037 19.2522 2.73113 19.2499C2.9919 19.2477 3.2496 19.1935 3.48921 19.0907C3.72814 18.9881 3.94431 18.8392 4.12519 18.6525L10.0062 12.776L15.889 18.6525C16.0698 18.8392 16.286 18.9881 16.5249 19.0907C16.7645 19.1935 17.0222 19.2477 17.283 19.2499C17.5438 19.2522 17.8024 19.2025 18.0437 19.1039C18.2851 19.0052 18.5044 18.8595 18.6888 18.6752C18.8732 18.4909 19.0191 18.2718 19.1179 18.0306C19.2166 17.7893 19.2663 17.5309 19.2641 17.2702C19.2618 17.0096 19.2076 16.752 19.1046 16.5125C19.002 16.2738 18.8529 16.0578 18.6661 15.877Z" fill="#A29FBE" stroke="#A29FBE" stroke-width="0.5"/>
</svg>
