<svg width="60" height="61" viewBox="0 0 60 61" fill="none" xmlns="http://www.w3.org/2000/svg">
<path d="M59.3826 23.9647C58.989 22.0378 58.3987 20.138 57.632 18.3264C56.8789 16.5487 55.9493 14.8321 54.8637 13.224C53.7917 11.6363 52.5636 10.1436 51.2066 8.78661C49.8496 7.42961 48.3569 6.20151 46.7692 5.12948C45.1611 4.05066 43.4445 3.11433 41.6669 2.36119C39.862 1.59448 37.9554 1.00418 36.0285 0.617437C34.0541 0.210336 32.0253 0 29.9898 0C27.9543 0 25.9256 0.210336 23.9444 0.617437C22.0242 1.00418 20.1176 1.60127 18.3128 2.36119C16.5351 3.12111 14.8185 4.05066 13.2105 5.12948C11.6228 6.20151 10.13 7.42961 8.77304 8.78661C7.42282 10.1436 6.19473 11.6363 5.11591 13.224C4.03709 14.8321 3.10076 16.5351 2.34762 18.3264C1.5877 20.1447 1.00418 22.0378 0.610653 23.9647C0.203551 25.9392 0 27.9679 0 30.0034C0 32.0389 0.203551 34.0744 0.610653 36.0489C1.01097 37.9758 1.59448 39.8756 2.36119 41.6872C3.10754 43.4649 4.04388 45.1815 5.12948 46.7896C6.20152 48.3773 7.42961 49.87 8.78661 51.227C10.1436 52.584 11.6363 53.8121 13.224 54.8841C14.8321 55.9629 16.5487 56.8992 18.3264 57.6524C20.138 58.4191 22.0378 59.0094 23.9647 59.4029C25.9459 59.8168 27.9747 60.0204 30.0102 60.0204C32.0457 60.0204 34.0744 59.8168 36.0489 59.4029C37.9758 59.0162 39.8756 58.4259 41.6872 57.6524C43.4649 56.8992 45.1815 55.9629 46.776 54.8841C48.3637 53.8121 49.8564 52.584 51.2134 51.227C52.5704 49.87 53.7985 48.3773 54.8705 46.7896C55.9493 45.1815 56.8857 43.4649 57.6388 41.6872C58.4055 39.8756 58.9958 37.9758 59.3893 36.0489C59.7964 34.0744 60 32.0389 60 30.0034C60 27.9679 59.7897 25.9392 59.3826 23.9647ZM55.6033 29.7456C55.2369 29.6641 46.5589 27.7983 37.7655 28.9042C37.5823 28.47 37.3991 28.0289 37.2091 27.5811C36.6731 26.3259 36.0963 25.0842 35.5061 23.8697C45.6225 19.7444 49.7343 13.8075 49.775 13.7329C53.371 18.0957 55.5422 23.6662 55.6033 29.7456ZM46.9117 10.7746C46.8438 10.8696 43.2003 16.4266 33.5248 20.0498C29.1553 12.0027 24.3379 5.61122 23.9579 5.10234C25.8917 4.63417 27.9136 4.38313 29.9966 4.38313C36.4831 4.38991 42.3996 6.7986 46.9117 10.7746ZM23.8629 5.12948C23.8629 5.12948 23.8562 5.13627 23.8629 5.12948C23.8562 5.13627 23.829 5.14305 23.7815 5.14984C23.8087 5.14305 23.829 5.13627 23.8629 5.12948ZM19.0591 6.83252C19.3984 7.28712 24.1343 13.7058 28.5785 21.5967C16.2773 24.8671 5.60443 24.7382 4.92593 24.7246C6.58826 16.7929 11.9213 10.2047 19.0591 6.83252ZM4.37634 30.0034C4.37634 29.7252 4.38991 29.4606 4.3967 29.196C4.84451 29.2028 17.5054 29.4945 30.6955 25.5456C31.4282 26.9841 32.1271 28.4496 32.7717 29.9016C32.4324 29.9966 32.1 30.0984 31.7675 30.2069C17.9396 34.6783 10.9307 47.1152 10.9307 47.1152C10.9307 47.1152 10.9375 47.122 10.9375 47.1288C6.85966 42.5828 4.37634 36.5849 4.37634 30.0034ZM29.9966 55.6237C23.7951 55.6237 18.1092 53.4185 13.6786 49.7546C14.0179 50.026 14.2486 50.2024 14.2486 50.2024C14.2486 50.2024 19.1609 39.4889 34.3526 34.1965C34.4137 34.1762 34.4679 34.1558 34.5222 34.1355C38.1319 43.4988 39.611 51.3423 39.9977 53.5881C36.9241 54.9044 33.5452 55.6237 29.9966 55.6237ZM44.313 51.2541C44.0484 49.7071 42.6846 42.1893 39.326 32.9481C47.597 31.6318 54.7552 33.898 55.2912 34.0744C54.1513 41.2123 50.0599 47.3731 44.313 51.2541Z" fill="white"/>
</svg>
