<svg width="60" height="49" viewBox="0 0 60 49" fill="none" xmlns="http://www.w3.org/2000/svg">
<path d="M21.3623 0.191093C9.84974 0.191093 0.416992 8.09988 0.416992 18.1438C0.416992 23.9396 3.55492 28.6994 8.79639 32.3853L6.70233 38.7386L14.0236 35.0368C16.6452 35.5611 18.7456 36.0981 21.3608 36.0981C22.0177 36.0981 22.6699 36.0665 23.3158 36.0128C22.8926 34.5768 22.6746 33.0881 22.6684 31.591C22.6684 22.373 30.5282 14.8906 40.4774 14.8906C41.1564 14.8906 41.8276 14.9395 42.4956 15.0153C40.6811 6.5096 31.6621 0.189514 21.3623 0.189514V0.191093ZM14.5606 14.4421C12.9908 14.4421 11.4053 13.384 11.4053 11.8C11.4053 10.2113 12.9908 9.16587 14.5606 9.16587C16.1288 9.16587 17.1758 10.2129 17.1758 11.8C17.1758 13.3824 16.1288 14.4421 14.5606 14.4421ZM29.219 14.4421C27.6493 14.4421 26.0732 13.384 26.0732 11.8C26.0732 10.2113 27.6493 9.16587 29.219 9.16587C30.7967 9.16587 31.8405 10.2129 31.8405 11.8C31.8405 13.3824 30.7951 14.4421 29.219 14.4421ZM59.5971 31.3367C59.5971 22.9036 51.2177 16.0245 41.8071 16.0245C31.8421 16.0245 23.9918 22.9036 23.9918 31.3367C23.9918 39.7887 31.8405 46.6537 41.8055 46.6537C43.8917 46.6537 45.9952 46.1246 48.0908 45.5956L53.8361 48.7635L52.2616 43.4889C56.4655 40.3115 59.5971 36.0981 59.5971 31.3367ZM36.0302 28.6994C34.9879 28.6994 33.9346 27.6555 33.9346 26.5895C33.9346 25.5362 34.9864 24.4765 36.0302 24.4765C37.6142 24.4765 38.6518 25.5346 38.6518 26.5895C38.6518 27.6555 37.6142 28.6994 36.0302 28.6994ZM47.5523 28.6994C46.5163 28.6994 45.4709 27.6555 45.4709 26.5895C45.4709 25.5362 46.5163 24.4765 47.5523 24.4765C49.1205 24.4765 50.1738 25.5346 50.1738 26.5895C50.1738 27.6555 49.1205 28.6994 47.5523 28.6994Z" fill="white"/>
</svg>
