<svg width="19" height="18" viewBox="0 0 19 18" fill="none" xmlns="http://www.w3.org/2000/svg">
<path d="M14.7112 17.9954C14.5596 17.996 14.4101 17.9602 14.2753 17.8912L9.44217 15.3629L4.60909 17.8912C4.45215 17.9736 4.2752 18.0105 4.09837 17.9974C3.92153 17.9844 3.7519 17.9221 3.60876 17.8175C3.46562 17.713 3.3547 17.5704 3.28863 17.406C3.22255 17.2415 3.20396 17.0619 3.23497 16.8875L4.18264 11.5563L0.278262 7.76863C0.156447 7.64716 0.0700337 7.49484 0.0282949 7.32802C-0.0134439 7.1612 -0.00893197 6.98616 0.0413464 6.82171C0.0962729 6.65342 0.197309 6.50388 0.33299 6.39006C0.468671 6.27625 0.633563 6.20271 0.808954 6.1778L6.21064 5.39186L8.58928 0.534167C8.66688 0.37407 8.78804 0.239052 8.93888 0.144579C9.08972 0.0501064 9.26415 0 9.44217 0C9.6202 0 9.79462 0.0501064 9.94547 0.144579C10.0963 0.239052 10.2175 0.37407 10.2951 0.534167L12.7021 5.38239L18.1038 6.16833C18.2792 6.19324 18.4441 6.26678 18.5798 6.38059C18.7155 6.49441 18.8165 6.64395 18.8714 6.81224C18.9217 6.97669 18.9262 7.15173 18.8845 7.31855C18.8427 7.48537 18.7563 7.63769 18.6345 7.75916L14.7301 11.5468L15.6778 16.878C15.7116 17.0555 15.6939 17.239 15.6268 17.4068C15.5596 17.5746 15.4458 17.7197 15.2987 17.8249C15.1271 17.9451 14.9205 18.005 14.7112 17.9954Z" fill="#4DD5FF"/>
</svg>
