<svg width="112" height="19" viewBox="0 0 112 19" fill="none" xmlns="http://www.w3.org/2000/svg">
<path d="M0 -0.000222936C0.336 1.55763 1.456 3.2571 2.912 3.68197H7.504L7.728 3.82359V18.4107H10.528V3.82359L10.752 3.68197H15.344C16.912 3.11548 17.92 1.55763 18.256 -0.000222936H0ZM87.136 18.4107C88.592 17.7026 89.376 16.2864 89.6 14.7285H76.944V-0.141846H74.144V18.2691H87.136V18.4107ZM52.976 3.68197H63.056C64.512 3.11548 65.856 1.69925 66.08 -0.000222936H50.176V10.9047H63.168V14.7285H52.976C51.408 15.295 50.064 16.7113 49.392 18.4107H66.08V7.36416H52.976V3.68197ZM95.648 7.36416V18.4107H98.56V11.0464H108.752V18.4107H111.664V7.36416H95.648ZM28.224 3.68197H39.088C40.544 3.2571 41.776 1.55763 42 -0.000222936H25.2C25.648 1.69925 26.768 3.2571 28.224 3.68197ZM28.224 11.0464H39.088C40.544 10.6215 41.776 8.92201 42 7.36416H25.2C25.648 8.92201 26.768 10.6215 28.224 11.0464ZM28.224 18.4107H39.088C40.544 17.9859 41.776 16.2864 42 14.7285H25.2C25.648 16.428 26.768 18.1275 28.224 18.4107ZM98.224 3.68197H109.088C110.544 3.2571 111.776 1.55763 112 -0.000222936H95.2C95.536 1.69925 96.656 3.39872 98.224 3.68197Z" fill="white"/>
</svg>
