<svg width="124" height="124" viewBox="0 0 124 124" fill="none" xmlns="http://www.w3.org/2000/svg">
<g filter="url(#filter0_d)">
<circle cx="62" cy="54" r="32" fill="white"/>
</g>
<path d="M72.899 44.3042C72.1741 43.5747 71.3121 42.9956 70.3624 42.6002C69.4127 42.2048 68.3942 42.0008 67.3654 42C65.4194 42.0003 63.5445 42.7308 62.1118 44.0467C60.6793 42.7305 58.8043 42.0001 56.8582 42C55.8282 42.0011 54.8085 42.2057 53.858 42.602C52.9074 42.9984 52.0446 43.5786 51.3193 44.3094C48.2258 47.4137 48.2271 52.269 51.3219 55.3601L62.1118 66.1415L72.9017 55.3601C75.9965 52.269 75.9978 47.4137 72.899 44.3042Z" fill="#FF636B" fill-opacity="0.6"/>
<defs>
<filter id="filter0_d" x="0" y="0" width="124" height="124" filterUnits="userSpaceOnUse" color-interpolation-filters="sRGB">
<feFlood flood-opacity="0" result="BackgroundImageFix"/>
<feColorMatrix in="SourceAlpha" type="matrix" values="0 0 0 0 0 0 0 0 0 0 0 0 0 0 0 0 0 0 127 0"/>
<feOffset dy="8"/>
<feGaussianBlur stdDeviation="15"/>
<feColorMatrix type="matrix" values="0 0 0 0 0.0862745 0 0 0 0 0.0705882 0 0 0 0 0.239216 0 0 0 0.12 0"/>
<feBlend mode="normal" in2="BackgroundImageFix" result="effect1_dropShadow"/>
<feBlend mode="normal" in="SourceGraphic" in2="effect1_dropShadow" result="shape"/>
</filter>
</defs>
</svg>
