<svg width="100" height="100" viewBox="0 0 100 100" fill="none" xmlns="http://www.w3.org/2000/svg">
<rect width="100" height="100" rx="50" fill="#E54F8C"/>
<path d="M79.3826 43.9647C78.989 42.0378 78.3987 40.138 77.632 38.3264C76.8789 36.5487 75.9493 34.8321 74.8637 33.224C73.7917 31.6363 72.5636 30.1436 71.2066 28.7866C69.8496 27.4296 68.3569 26.2015 66.7692 25.1295C65.1611 24.0507 63.4445 23.1143 61.6669 22.3612C59.862 21.5945 57.9554 21.0042 56.0285 20.6174C54.0541 20.2103 52.0253 20 49.9898 20C47.9543 20 45.9256 20.2103 43.9444 20.6174C42.0242 21.0042 40.1176 21.6013 38.3128 22.3612C36.5351 23.1211 34.8185 24.0507 33.2105 25.1295C31.6228 26.2015 30.13 27.4296 28.773 28.7866C27.4228 30.1436 26.1947 31.6363 25.1159 33.224C24.0371 34.8321 23.1008 36.5351 22.3476 38.3264C21.5877 40.1447 21.0042 42.0378 20.6107 43.9647C20.2036 45.9392 20 47.9679 20 50.0034C20 52.0389 20.2036 54.0744 20.6107 56.0489C21.011 57.9758 21.5945 59.8756 22.3612 61.6872C23.1075 63.4649 24.0439 65.1815 25.1295 66.7896C26.2015 68.3773 27.4296 69.87 28.7866 71.227C30.1436 72.584 31.6363 73.8121 33.224 74.8841C34.8321 75.9629 36.5487 76.8992 38.3264 77.6524C40.138 78.4191 42.0378 79.0094 43.9647 79.4029C45.9459 79.8168 47.9747 80.0204 50.0102 80.0204C52.0457 80.0204 54.0744 79.8168 56.0489 79.4029C57.9758 79.0162 59.8756 78.4259 61.6872 77.6524C63.4649 76.8992 65.1815 75.9629 66.776 74.8841C68.3637 73.8121 69.8564 72.584 71.2134 71.227C72.5704 69.87 73.7985 68.3773 74.8705 66.7896C75.9493 65.1815 76.8857 63.4649 77.6388 61.6872C78.4055 59.8756 78.9958 57.9758 79.3893 56.0489C79.7964 54.0744 80 52.0389 80 50.0034C80 47.9679 79.7897 45.9392 79.3826 43.9647ZM75.6033 49.7456C75.2369 49.6641 66.5589 47.7983 57.7655 48.9042C57.5823 48.47 57.3991 48.0289 57.2091 47.5811C56.6731 46.3259 56.0963 45.0842 55.5061 43.8697C65.6225 39.7444 69.7343 33.8075 69.775 33.7329C73.371 38.0957 75.5422 43.6662 75.6033 49.7456ZM66.9117 30.7746C66.8438 30.8696 63.2003 36.4266 53.5248 40.0498C49.1553 32.0027 44.3379 25.6112 43.9579 25.1023C45.8917 24.6342 47.9136 24.3831 49.9966 24.3831C56.4831 24.3899 62.3996 26.7986 66.9117 30.7746ZM43.8629 25.1295C43.8629 25.1295 43.8562 25.1363 43.8629 25.1295C43.8562 25.1363 43.829 25.1431 43.7815 25.1498C43.8087 25.1431 43.829 25.1363 43.8629 25.1295ZM39.0591 26.8325C39.3984 27.2871 44.1343 33.7058 48.5785 41.5967C36.2773 44.8671 25.6044 44.7382 24.9259 44.7246C26.5883 36.7929 31.9213 30.2047 39.0591 26.8325ZM24.3763 50.0034C24.3763 49.7252 24.3899 49.4606 24.3967 49.196C24.8445 49.2028 37.5054 49.4945 50.6955 45.5456C51.4282 46.9841 52.1271 48.4496 52.7717 49.9016C52.4324 49.9966 52.1 50.0984 51.7675 50.2069C37.9396 54.6783 30.9307 67.1152 30.9307 67.1152C30.9307 67.1152 30.9375 67.122 30.9375 67.1288C26.8597 62.5828 24.3763 56.5849 24.3763 50.0034ZM49.9966 75.6237C43.7951 75.6237 38.1092 73.4185 33.6786 69.7546C34.0179 70.026 34.2486 70.2024 34.2486 70.2024C34.2486 70.2024 39.1609 59.4889 54.3526 54.1965C54.4137 54.1762 54.4679 54.1558 54.5222 54.1355C58.1319 63.4988 59.611 71.3423 59.9977 73.5881C56.9241 74.9044 53.5452 75.6237 49.9966 75.6237ZM64.313 71.2541C64.0484 69.7071 62.6846 62.1893 59.326 52.9481C67.597 51.6318 74.7552 53.898 75.2912 54.0744C74.1513 61.2123 70.0599 67.3731 64.313 71.2541Z" fill="white"/>
</svg>
